<mxfile host="app.diagrams.net" modified="2022-06-02T14:34:14.473Z" agent="5.0 (X11; Linux x86_64) AppleWebKit/537.36 (KHTML, like Gecko) Chrome/102.0.0.0 Safari/537.36" etag="fA1TAD6z0vN0chsoBF-E" version="18.2.0" type="github">
  <diagram name="Page-1" id="c7488fd3-1785-93aa-aadb-54a6760d102a">
    <mxGraphModel dx="2604" dy="711" grid="1" gridSize="10" guides="1" tooltips="1" connect="1" arrows="1" fold="1" page="1" pageScale="1" pageWidth="1100" pageHeight="850" background="none" math="0" shadow="0">
      <root>
        <mxCell id="0" />
        <mxCell id="1" parent="0" />
        <mxCell id="N1SJ166QkLJ8DgW-zydG-142" value="" style="edgeStyle=orthogonalEdgeStyle;curved=1;orthogonalLoop=1;jettySize=auto;html=1;strokeColor=default;dashed=1;" edge="1" parent="1" source="N1SJ166QkLJ8DgW-zydG-17" target="N1SJ166QkLJ8DgW-zydG-141">
          <mxGeometry relative="1" as="geometry" />
        </mxCell>
        <mxCell id="N1SJ166QkLJ8DgW-zydG-17" value="online&lt;br&gt;e-book library" style="html=1;dropTarget=0;rounded=0;" vertex="1" parent="1">
          <mxGeometry x="110" y="440" width="180" height="90" as="geometry" />
        </mxCell>
        <mxCell id="N1SJ166QkLJ8DgW-zydG-18" value="" style="shape=module;jettyWidth=8;jettyHeight=4;rounded=0;" vertex="1" parent="N1SJ166QkLJ8DgW-zydG-17">
          <mxGeometry x="1" width="20" height="20" relative="1" as="geometry">
            <mxPoint x="-27" y="7" as="offset" />
          </mxGeometry>
        </mxCell>
        <mxCell id="N1SJ166QkLJ8DgW-zydG-31" value="" style="edgeStyle=orthogonalEdgeStyle;rounded=0;orthogonalLoop=1;jettySize=auto;html=1;curved=1;" edge="1" parent="1" source="N1SJ166QkLJ8DgW-zydG-20">
          <mxGeometry relative="1" as="geometry">
            <mxPoint x="480" y="330" as="targetPoint" />
          </mxGeometry>
        </mxCell>
        <mxCell id="N1SJ166QkLJ8DgW-zydG-20" value="Customer" style="whiteSpace=wrap;html=1;rounded=0;" vertex="1" parent="1">
          <mxGeometry x="420" y="505" width="120" height="60" as="geometry" />
        </mxCell>
        <mxCell id="N1SJ166QkLJ8DgW-zydG-22" value="" style="html=1;rounded=0;" vertex="1" parent="1">
          <mxGeometry x="280" y="480" width="30" height="30" as="geometry" />
        </mxCell>
        <mxCell id="N1SJ166QkLJ8DgW-zydG-23" value="" style="endArrow=none;html=1;rounded=0;align=center;verticalAlign=top;endFill=0;labelBackgroundColor=none;endSize=2;curved=1;" edge="1" source="N1SJ166QkLJ8DgW-zydG-22" target="N1SJ166QkLJ8DgW-zydG-24" parent="1">
          <mxGeometry relative="1" as="geometry" />
        </mxCell>
        <mxCell id="N1SJ166QkLJ8DgW-zydG-24" value="" style="ellipse;html=1;fontSize=11;align=center;fillColor=none;points=[];aspect=fixed;resizable=0;verticalAlign=bottom;labelPosition=center;verticalLabelPosition=top;flipH=1;rounded=0;" vertex="1" parent="1">
          <mxGeometry x="332" y="491" width="8" height="8" as="geometry" />
        </mxCell>
        <mxCell id="N1SJ166QkLJ8DgW-zydG-26" value="" style="endArrow=none;html=1;rounded=0;align=center;verticalAlign=top;endFill=0;labelBackgroundColor=none;endSize=2;startArrow=none;curved=1;" edge="1" source="N1SJ166QkLJ8DgW-zydG-25" parent="1">
          <mxGeometry relative="1" as="geometry">
            <mxPoint x="550" y="525.0449438202247" as="sourcePoint" />
            <mxPoint x="345.03995210782955" y="498.3310499376496" as="targetPoint" />
          </mxGeometry>
        </mxCell>
        <mxCell id="N1SJ166QkLJ8DgW-zydG-27" value="" style="shape=requiredInterface;html=1;fontSize=11;align=center;fillColor=none;points=[];aspect=fixed;resizable=0;verticalAlign=bottom;labelPosition=center;verticalLabelPosition=top;flipH=1;rotation=-165;rounded=0;" vertex="1" parent="1">
          <mxGeometry x="340" y="492" width="5" height="10" as="geometry" />
        </mxCell>
        <mxCell id="N1SJ166QkLJ8DgW-zydG-32" value="profile" style="whiteSpace=wrap;html=1;rounded=0;" vertex="1" parent="1">
          <mxGeometry x="420" y="270" width="120" height="60" as="geometry" />
        </mxCell>
        <mxCell id="N1SJ166QkLJ8DgW-zydG-25" value="" style="html=1;rounded=0;" vertex="1" parent="1">
          <mxGeometry x="400" y="520" width="30" height="30" as="geometry" />
        </mxCell>
        <mxCell id="N1SJ166QkLJ8DgW-zydG-36" value="Send a gift" style="whiteSpace=wrap;html=1;rounded=0;" vertex="1" parent="1">
          <mxGeometry x="590" y="680" width="120" height="60" as="geometry" />
        </mxCell>
        <mxCell id="N1SJ166QkLJ8DgW-zydG-38" value="Buy" style="whiteSpace=wrap;html=1;rounded=0;" vertex="1" parent="1">
          <mxGeometry x="270" y="690" width="120" height="60" as="geometry" />
        </mxCell>
        <mxCell id="N1SJ166QkLJ8DgW-zydG-40" value="Read" style="whiteSpace=wrap;html=1;rounded=0;" vertex="1" parent="1">
          <mxGeometry x="420" y="685" width="120" height="60" as="geometry" />
        </mxCell>
        <mxCell id="N1SJ166QkLJ8DgW-zydG-42" value="Book" style="whiteSpace=wrap;html=1;rounded=0;" vertex="1" parent="1">
          <mxGeometry x="420" y="900" width="120" height="60" as="geometry" />
        </mxCell>
        <mxCell id="N1SJ166QkLJ8DgW-zydG-48" value="" style="shape=module;jettyWidth=8;jettyHeight=4;" vertex="1" parent="1">
          <mxGeometry x="513" y="511" width="20" height="20" as="geometry" />
        </mxCell>
        <mxCell id="N1SJ166QkLJ8DgW-zydG-49" value="Admin" style="html=1;dropTarget=0;" vertex="1" parent="1">
          <mxGeometry x="-293" y="280" width="180" height="90" as="geometry" />
        </mxCell>
        <mxCell id="N1SJ166QkLJ8DgW-zydG-50" value="" style="shape=module;jettyWidth=8;jettyHeight=4;" vertex="1" parent="N1SJ166QkLJ8DgW-zydG-49">
          <mxGeometry x="1" width="20" height="20" relative="1" as="geometry">
            <mxPoint x="-27" y="7" as="offset" />
          </mxGeometry>
        </mxCell>
        <mxCell id="N1SJ166QkLJ8DgW-zydG-51" value="Author" style="html=1;dropTarget=0;" vertex="1" parent="1">
          <mxGeometry x="-200" y="735" width="180" height="90" as="geometry" />
        </mxCell>
        <mxCell id="N1SJ166QkLJ8DgW-zydG-52" value="" style="shape=module;jettyWidth=8;jettyHeight=4;" vertex="1" parent="N1SJ166QkLJ8DgW-zydG-51">
          <mxGeometry x="1" width="20" height="20" relative="1" as="geometry">
            <mxPoint x="-27" y="7" as="offset" />
          </mxGeometry>
        </mxCell>
        <mxCell id="N1SJ166QkLJ8DgW-zydG-53" value="" style="html=1;rounded=0;" vertex="1" parent="1">
          <mxGeometry x="100" y="469" width="30" height="30" as="geometry" />
        </mxCell>
        <mxCell id="N1SJ166QkLJ8DgW-zydG-54" value="" style="endArrow=none;html=1;rounded=0;align=center;verticalAlign=top;endFill=0;labelBackgroundColor=none;endSize=2;curved=1;entryX=0.244;entryY=0.805;entryDx=0;entryDy=0;entryPerimeter=0;" edge="1" source="N1SJ166QkLJ8DgW-zydG-53" target="N1SJ166QkLJ8DgW-zydG-55" parent="1">
          <mxGeometry relative="1" as="geometry">
            <mxPoint x="50" y="420" as="targetPoint" />
          </mxGeometry>
        </mxCell>
        <mxCell id="N1SJ166QkLJ8DgW-zydG-55" value="" style="ellipse;html=1;fontSize=11;align=center;fillColor=none;points=[];aspect=fixed;resizable=0;verticalAlign=bottom;labelPosition=center;verticalLabelPosition=top;flipH=1;" vertex="1" parent="1">
          <mxGeometry x="24" y="428" width="8" height="8" as="geometry" />
        </mxCell>
        <mxCell id="N1SJ166QkLJ8DgW-zydG-56" value="" style="html=1;rounded=0;" vertex="1" parent="1">
          <mxGeometry x="-126.5" y="320" width="30" height="30" as="geometry" />
        </mxCell>
        <mxCell id="N1SJ166QkLJ8DgW-zydG-57" value="" style="endArrow=none;html=1;rounded=0;align=center;verticalAlign=top;endFill=0;labelBackgroundColor=none;endSize=2;" edge="1" source="N1SJ166QkLJ8DgW-zydG-56" target="N1SJ166QkLJ8DgW-zydG-58" parent="1">
          <mxGeometry relative="1" as="geometry">
            <Array as="points" />
          </mxGeometry>
        </mxCell>
        <mxCell id="N1SJ166QkLJ8DgW-zydG-58" value="" style="shape=requiredInterface;html=1;fontSize=11;align=center;fillColor=none;points=[];aspect=fixed;resizable=0;verticalAlign=bottom;labelPosition=center;verticalLabelPosition=top;flipH=1;rotation=55;" vertex="1" parent="1">
          <mxGeometry x="20" y="420" width="5" height="10" as="geometry" />
        </mxCell>
        <mxCell id="N1SJ166QkLJ8DgW-zydG-59" value="Manage" style="whiteSpace=wrap;html=1;rounded=0;" vertex="1" parent="1">
          <mxGeometry x="-191" y="530" width="120" height="80" as="geometry" />
        </mxCell>
        <mxCell id="N1SJ166QkLJ8DgW-zydG-64" value="" style="endArrow=none;html=1;rounded=0;align=center;verticalAlign=top;endFill=0;labelBackgroundColor=none;endSize=2;curved=1;exitX=0;exitY=0.5;exitDx=0;exitDy=0;" edge="1" source="N1SJ166QkLJ8DgW-zydG-25" target="N1SJ166QkLJ8DgW-zydG-65" parent="1">
          <mxGeometry relative="1" as="geometry">
            <mxPoint x="302" y="562.9940478577525" as="sourcePoint" />
          </mxGeometry>
        </mxCell>
        <mxCell id="N1SJ166QkLJ8DgW-zydG-65" value="" style="ellipse;html=1;fontSize=11;align=center;fillColor=none;points=[];aspect=fixed;resizable=0;verticalAlign=bottom;labelPosition=center;verticalLabelPosition=top;flipH=1;" vertex="1" parent="1">
          <mxGeometry x="170" y="576" width="8" height="8" as="geometry" />
        </mxCell>
        <mxCell id="N1SJ166QkLJ8DgW-zydG-68" value="" style="html=1;rounded=0;" vertex="1" parent="1">
          <mxGeometry x="-80" y="570" width="20" height="25" as="geometry" />
        </mxCell>
        <mxCell id="N1SJ166QkLJ8DgW-zydG-69" value="" style="endArrow=none;html=1;rounded=0;align=center;verticalAlign=top;endFill=0;labelBackgroundColor=none;endSize=2;curved=1;" edge="1" source="N1SJ166QkLJ8DgW-zydG-68" target="N1SJ166QkLJ8DgW-zydG-70" parent="1">
          <mxGeometry relative="1" as="geometry" />
        </mxCell>
        <mxCell id="N1SJ166QkLJ8DgW-zydG-70" value="" style="shape=requiredInterface;html=1;fontSize=11;align=center;fillColor=none;points=[];aspect=fixed;resizable=0;verticalAlign=bottom;labelPosition=center;verticalLabelPosition=top;flipH=1;" vertex="1" parent="1">
          <mxGeometry x="165" y="575" width="5" height="10" as="geometry" />
        </mxCell>
        <mxCell id="N1SJ166QkLJ8DgW-zydG-71" value="" style="html=1;rounded=0;" vertex="1" parent="1">
          <mxGeometry x="-220" y="350" width="30" height="30" as="geometry" />
        </mxCell>
        <mxCell id="N1SJ166QkLJ8DgW-zydG-72" value="" style="endArrow=none;html=1;rounded=0;align=center;verticalAlign=top;endFill=0;labelBackgroundColor=none;endSize=2;" edge="1" source="N1SJ166QkLJ8DgW-zydG-71" target="N1SJ166QkLJ8DgW-zydG-73" parent="1">
          <mxGeometry relative="1" as="geometry" />
        </mxCell>
        <mxCell id="N1SJ166QkLJ8DgW-zydG-73" value="" style="ellipse;html=1;fontSize=11;align=center;fillColor=none;points=[];aspect=fixed;resizable=0;verticalAlign=bottom;labelPosition=center;verticalLabelPosition=top;flipH=1;" vertex="1" parent="1">
          <mxGeometry x="-151" y="471" width="8" height="8" as="geometry" />
        </mxCell>
        <mxCell id="N1SJ166QkLJ8DgW-zydG-74" value="" style="html=1;rounded=0;" vertex="1" parent="1">
          <mxGeometry x="-143.5" y="520" width="22" height="20" as="geometry" />
        </mxCell>
        <mxCell id="N1SJ166QkLJ8DgW-zydG-75" value="" style="endArrow=none;html=1;rounded=0;align=center;verticalAlign=top;endFill=0;labelBackgroundColor=none;endSize=2;" edge="1" source="N1SJ166QkLJ8DgW-zydG-74" target="N1SJ166QkLJ8DgW-zydG-76" parent="1">
          <mxGeometry relative="1" as="geometry" />
        </mxCell>
        <mxCell id="N1SJ166QkLJ8DgW-zydG-76" value="" style="shape=requiredInterface;html=1;fontSize=11;align=center;fillColor=none;points=[];aspect=fixed;resizable=0;verticalAlign=bottom;labelPosition=center;verticalLabelPosition=top;flipH=1;rotation=-110;" vertex="1" parent="1">
          <mxGeometry x="-147" y="477" width="5" height="10" as="geometry" />
        </mxCell>
        <mxCell id="N1SJ166QkLJ8DgW-zydG-81" value="" style="html=1;rounded=0;" vertex="1" parent="1">
          <mxGeometry x="-140" y="600" width="27" height="25" as="geometry" />
        </mxCell>
        <mxCell id="N1SJ166QkLJ8DgW-zydG-82" value="" style="endArrow=none;html=1;rounded=0;align=center;verticalAlign=top;endFill=0;labelBackgroundColor=none;endSize=2;" edge="1" source="N1SJ166QkLJ8DgW-zydG-81" target="N1SJ166QkLJ8DgW-zydG-83" parent="1">
          <mxGeometry relative="1" as="geometry" />
        </mxCell>
        <mxCell id="N1SJ166QkLJ8DgW-zydG-83" value="" style="ellipse;html=1;fontSize=11;align=center;fillColor=none;points=[];aspect=fixed;resizable=0;verticalAlign=bottom;labelPosition=center;verticalLabelPosition=top;flipH=1;" vertex="1" parent="1">
          <mxGeometry x="-128" y="660" width="8" height="8" as="geometry" />
        </mxCell>
        <mxCell id="N1SJ166QkLJ8DgW-zydG-84" value="" style="html=1;rounded=0;" vertex="1" parent="1">
          <mxGeometry x="-121" y="720" width="21" height="25" as="geometry" />
        </mxCell>
        <mxCell id="N1SJ166QkLJ8DgW-zydG-85" value="" style="endArrow=none;html=1;rounded=0;align=center;verticalAlign=top;endFill=0;labelBackgroundColor=none;endSize=2;entryX=0.906;entryY=0.514;entryDx=0;entryDy=0;entryPerimeter=0;" edge="1" source="N1SJ166QkLJ8DgW-zydG-84" target="N1SJ166QkLJ8DgW-zydG-86" parent="1">
          <mxGeometry relative="1" as="geometry">
            <mxPoint x="-113" y="708" as="targetPoint" />
          </mxGeometry>
        </mxCell>
        <mxCell id="N1SJ166QkLJ8DgW-zydG-86" value="" style="shape=requiredInterface;html=1;fontSize=11;align=center;fillColor=none;points=[];aspect=fixed;resizable=0;verticalAlign=bottom;labelPosition=center;verticalLabelPosition=top;flipH=1;rotation=-90;" vertex="1" parent="1">
          <mxGeometry x="-126.5" y="668" width="5" height="10" as="geometry" />
        </mxCell>
        <mxCell id="N1SJ166QkLJ8DgW-zydG-87" value="" style="html=1;rounded=0;" vertex="1" parent="1">
          <mxGeometry x="-130" y="818" width="33.5" height="20" as="geometry" />
        </mxCell>
        <mxCell id="N1SJ166QkLJ8DgW-zydG-88" value="" style="endArrow=none;html=1;rounded=0;align=center;verticalAlign=top;endFill=0;labelBackgroundColor=none;endSize=2;" edge="1" source="N1SJ166QkLJ8DgW-zydG-87" target="N1SJ166QkLJ8DgW-zydG-89" parent="1">
          <mxGeometry relative="1" as="geometry" />
        </mxCell>
        <mxCell id="N1SJ166QkLJ8DgW-zydG-89" value="" style="shape=requiredInterface;html=1;fontSize=11;align=center;fillColor=none;points=[];aspect=fixed;resizable=0;verticalAlign=bottom;labelPosition=center;verticalLabelPosition=top;flipH=1;rotation=90;" vertex="1" parent="1">
          <mxGeometry x="-115.75" y="865" width="5" height="10" as="geometry" />
        </mxCell>
        <mxCell id="N1SJ166QkLJ8DgW-zydG-93" value="Request" style="whiteSpace=wrap;html=1;rounded=0;" vertex="1" parent="1">
          <mxGeometry x="-170.5" y="1080" width="120" height="60" as="geometry" />
        </mxCell>
        <mxCell id="N1SJ166QkLJ8DgW-zydG-99" value="" style="html=1;rounded=0;" vertex="1" parent="1">
          <mxGeometry x="-125.5" y="1070" width="30" height="20" as="geometry" />
        </mxCell>
        <mxCell id="N1SJ166QkLJ8DgW-zydG-100" value="" style="endArrow=none;html=1;rounded=0;align=center;verticalAlign=top;endFill=0;labelBackgroundColor=none;endSize=2;" edge="1" source="N1SJ166QkLJ8DgW-zydG-99" target="N1SJ166QkLJ8DgW-zydG-101" parent="1">
          <mxGeometry relative="1" as="geometry" />
        </mxCell>
        <mxCell id="N1SJ166QkLJ8DgW-zydG-101" value="" style="ellipse;html=1;fontSize=11;align=center;fillColor=none;points=[];aspect=fixed;resizable=0;verticalAlign=bottom;labelPosition=center;verticalLabelPosition=top;flipH=1;" vertex="1" parent="1">
          <mxGeometry x="-115.5" y="1034" width="8" height="8" as="geometry" />
        </mxCell>
        <mxCell id="N1SJ166QkLJ8DgW-zydG-103" value="" style="ellipse;html=1;fontSize=11;align=center;fillColor=none;points=[];aspect=fixed;resizable=0;verticalAlign=bottom;labelPosition=center;verticalLabelPosition=top;flipH=1;" vertex="1" parent="1">
          <mxGeometry x="-363" y="942" width="8" height="8" as="geometry" />
        </mxCell>
        <mxCell id="N1SJ166QkLJ8DgW-zydG-104" value="" style="html=1;rounded=0;" vertex="1" parent="1">
          <mxGeometry x="-191" y="1100" width="30" height="20" as="geometry" />
        </mxCell>
        <mxCell id="N1SJ166QkLJ8DgW-zydG-106" value="" style="shape=requiredInterface;html=1;fontSize=11;align=center;fillColor=none;points=[];aspect=fixed;resizable=0;verticalAlign=bottom;labelPosition=center;verticalLabelPosition=top;flipH=1;rotation=-100;" vertex="1" parent="1">
          <mxGeometry x="-360" y="950" width="5" height="10" as="geometry" />
        </mxCell>
        <mxCell id="N1SJ166QkLJ8DgW-zydG-107" value="Approve/&lt;br&gt;Disapprove" style="whiteSpace=wrap;html=1;rounded=0;" vertex="1" parent="1">
          <mxGeometry x="-545" y="790" width="120" height="77" as="geometry" />
        </mxCell>
        <mxCell id="N1SJ166QkLJ8DgW-zydG-109" value="" style="ellipse;html=1;fontSize=11;align=center;fillColor=none;points=[];aspect=fixed;resizable=0;verticalAlign=bottom;labelPosition=center;verticalLabelPosition=top;flipH=1;" vertex="1" parent="1">
          <mxGeometry x="-290" y="497" width="8" height="8" as="geometry" />
        </mxCell>
        <mxCell id="N1SJ166QkLJ8DgW-zydG-110" value="" style="shape=requiredInterface;html=1;fontSize=11;align=center;fillColor=none;points=[];aspect=fixed;resizable=0;verticalAlign=bottom;labelPosition=center;verticalLabelPosition=top;flipH=1;rotation=-60;" vertex="1" parent="1">
          <mxGeometry x="-291" y="501" width="5" height="10" as="geometry" />
        </mxCell>
        <mxCell id="N1SJ166QkLJ8DgW-zydG-112" value="" style="html=1;rounded=0;" vertex="1" parent="1">
          <mxGeometry x="-442" y="822" width="30" height="30" as="geometry" />
        </mxCell>
        <mxCell id="N1SJ166QkLJ8DgW-zydG-115" value="" style="html=1;rounded=0;" vertex="1" parent="1">
          <mxGeometry x="465" y="550" width="30" height="30" as="geometry" />
        </mxCell>
        <mxCell id="N1SJ166QkLJ8DgW-zydG-116" value="" style="endArrow=none;html=1;rounded=0;align=center;verticalAlign=top;endFill=0;labelBackgroundColor=none;endSize=2;strokeColor=default;curved=1;" edge="1" source="N1SJ166QkLJ8DgW-zydG-115" target="N1SJ166QkLJ8DgW-zydG-117" parent="1">
          <mxGeometry relative="1" as="geometry" />
        </mxCell>
        <mxCell id="N1SJ166QkLJ8DgW-zydG-117" value="" style="ellipse;html=1;fontSize=11;align=center;fillColor=none;points=[];aspect=fixed;resizable=0;verticalAlign=bottom;labelPosition=center;verticalLabelPosition=top;flipH=1;" vertex="1" parent="1">
          <mxGeometry x="476" y="617" width="8" height="8" as="geometry" />
        </mxCell>
        <mxCell id="N1SJ166QkLJ8DgW-zydG-119" value="" style="html=1;rounded=0;" vertex="1" parent="1">
          <mxGeometry x="310" y="680" width="32.5" height="23" as="geometry" />
        </mxCell>
        <mxCell id="N1SJ166QkLJ8DgW-zydG-120" value="" style="endArrow=none;html=1;rounded=0;align=center;verticalAlign=top;endFill=0;labelBackgroundColor=none;endSize=2;strokeColor=default;curved=1;exitX=0.5;exitY=0;exitDx=0;exitDy=0;" edge="1" source="N1SJ166QkLJ8DgW-zydG-119" target="N1SJ166QkLJ8DgW-zydG-121" parent="1">
          <mxGeometry relative="1" as="geometry" />
        </mxCell>
        <mxCell id="N1SJ166QkLJ8DgW-zydG-121" value="" style="shape=requiredInterface;html=1;fontSize=11;align=center;fillColor=none;points=[];aspect=fixed;resizable=0;verticalAlign=bottom;labelPosition=center;verticalLabelPosition=top;flipH=1;" vertex="1" parent="1">
          <mxGeometry x="471" y="616" width="5" height="10" as="geometry" />
        </mxCell>
        <mxCell id="N1SJ166QkLJ8DgW-zydG-122" value="" style="html=1;rounded=0;" vertex="1" parent="1">
          <mxGeometry x="635" y="663" width="30" height="20" as="geometry" />
        </mxCell>
        <mxCell id="N1SJ166QkLJ8DgW-zydG-123" value="" style="endArrow=none;html=1;rounded=0;align=center;verticalAlign=top;endFill=0;labelBackgroundColor=none;endSize=2;strokeColor=default;curved=1;exitX=0;exitY=0.5;exitDx=0;exitDy=0;" edge="1" source="N1SJ166QkLJ8DgW-zydG-122" parent="1">
          <mxGeometry relative="1" as="geometry">
            <mxPoint x="631" y="669.9842271293375" as="sourcePoint" />
            <mxPoint x="489.919625291609" y="622.8090860596548" as="targetPoint" />
          </mxGeometry>
        </mxCell>
        <mxCell id="N1SJ166QkLJ8DgW-zydG-124" value="" style="shape=requiredInterface;html=1;fontSize=11;align=center;fillColor=none;points=[];aspect=fixed;resizable=0;verticalAlign=bottom;labelPosition=center;verticalLabelPosition=top;flipH=1;rotation=-175;" vertex="1" parent="1">
          <mxGeometry x="484" y="617" width="5" height="10" as="geometry" />
        </mxCell>
        <mxCell id="N1SJ166QkLJ8DgW-zydG-125" value="" style="html=1;rounded=0;" vertex="1" parent="1">
          <mxGeometry x="465" y="678" width="25" height="18" as="geometry" />
        </mxCell>
        <mxCell id="N1SJ166QkLJ8DgW-zydG-126" value="" style="endArrow=none;html=1;rounded=0;align=center;verticalAlign=top;endFill=0;labelBackgroundColor=none;endSize=2;strokeColor=default;curved=1;" edge="1" source="N1SJ166QkLJ8DgW-zydG-125" target="N1SJ166QkLJ8DgW-zydG-127" parent="1">
          <mxGeometry relative="1" as="geometry" />
        </mxCell>
        <mxCell id="N1SJ166QkLJ8DgW-zydG-127" value="" style="shape=requiredInterface;html=1;fontSize=11;align=center;fillColor=none;points=[];aspect=fixed;resizable=0;verticalAlign=bottom;labelPosition=center;verticalLabelPosition=top;flipH=1;rotation=-90;" vertex="1" parent="1">
          <mxGeometry x="477.5" y="625" width="5" height="10" as="geometry" />
        </mxCell>
        <mxCell id="N1SJ166QkLJ8DgW-zydG-128" value="" style="html=1;rounded=0;" vertex="1" parent="1">
          <mxGeometry x="311.25" y="740" width="30" height="20" as="geometry" />
        </mxCell>
        <mxCell id="N1SJ166QkLJ8DgW-zydG-129" value="" style="endArrow=none;html=1;rounded=0;align=center;verticalAlign=top;endFill=0;labelBackgroundColor=none;endSize=2;strokeColor=default;curved=1;" edge="1" source="N1SJ166QkLJ8DgW-zydG-128" target="N1SJ166QkLJ8DgW-zydG-130" parent="1">
          <mxGeometry relative="1" as="geometry" />
        </mxCell>
        <mxCell id="N1SJ166QkLJ8DgW-zydG-130" value="" style="ellipse;html=1;fontSize=11;align=center;fillColor=none;points=[];aspect=fixed;resizable=0;verticalAlign=bottom;labelPosition=center;verticalLabelPosition=top;flipH=1;" vertex="1" parent="1">
          <mxGeometry x="471" y="820" width="8" height="8" as="geometry" />
        </mxCell>
        <mxCell id="N1SJ166QkLJ8DgW-zydG-131" value="" style="html=1;rounded=0;" vertex="1" parent="1">
          <mxGeometry x="462" y="740" width="31" height="20" as="geometry" />
        </mxCell>
        <mxCell id="N1SJ166QkLJ8DgW-zydG-132" value="" style="endArrow=none;html=1;rounded=0;align=center;verticalAlign=top;endFill=0;labelBackgroundColor=none;endSize=2;strokeColor=default;curved=1;entryX=0.375;entryY=0;entryDx=0;entryDy=0;entryPerimeter=0;" edge="1" source="N1SJ166QkLJ8DgW-zydG-131" target="N1SJ166QkLJ8DgW-zydG-130" parent="1">
          <mxGeometry relative="1" as="geometry">
            <mxPoint x="479.0109917390064" y="812.2963661134133" as="targetPoint" />
          </mxGeometry>
        </mxCell>
        <mxCell id="N1SJ166QkLJ8DgW-zydG-134" value="" style="html=1;rounded=0;" vertex="1" parent="1">
          <mxGeometry x="632.5" y="730" width="35" height="20" as="geometry" />
        </mxCell>
        <mxCell id="N1SJ166QkLJ8DgW-zydG-135" value="" style="endArrow=none;html=1;rounded=0;align=center;verticalAlign=top;endFill=0;labelBackgroundColor=none;endSize=2;strokeColor=default;curved=1;entryX=-0.125;entryY=0.269;entryDx=0;entryDy=0;entryPerimeter=0;" edge="1" source="N1SJ166QkLJ8DgW-zydG-134" target="N1SJ166QkLJ8DgW-zydG-130" parent="1">
          <mxGeometry relative="1" as="geometry">
            <mxPoint x="492.5468953841646" y="822.1508020296127" as="targetPoint" />
          </mxGeometry>
        </mxCell>
        <mxCell id="N1SJ166QkLJ8DgW-zydG-137" value="" style="html=1;rounded=0;" vertex="1" parent="1">
          <mxGeometry x="457.5" y="895" width="35" height="15" as="geometry" />
        </mxCell>
        <mxCell id="N1SJ166QkLJ8DgW-zydG-138" value="" style="endArrow=none;html=1;rounded=0;align=center;verticalAlign=top;endFill=0;labelBackgroundColor=none;endSize=2;strokeColor=default;curved=1;" edge="1" source="N1SJ166QkLJ8DgW-zydG-137" target="N1SJ166QkLJ8DgW-zydG-139" parent="1">
          <mxGeometry relative="1" as="geometry" />
        </mxCell>
        <mxCell id="N1SJ166QkLJ8DgW-zydG-139" value="" style="shape=requiredInterface;html=1;fontSize=11;align=center;fillColor=none;points=[];aspect=fixed;resizable=0;verticalAlign=bottom;labelPosition=center;verticalLabelPosition=top;flipH=1;rotation=-90;" vertex="1" parent="1">
          <mxGeometry x="472.5" y="825" width="5" height="10" as="geometry" />
        </mxCell>
        <mxCell id="N1SJ166QkLJ8DgW-zydG-140" value="update" style="text;html=1;align=center;verticalAlign=middle;resizable=0;points=[];autosize=1;strokeColor=none;fillColor=none;rotation=-90;" vertex="1" parent="1">
          <mxGeometry x="472.5" y="408" width="50" height="20" as="geometry" />
        </mxCell>
        <mxCell id="N1SJ166QkLJ8DgW-zydG-141" value="Database" style="whiteSpace=wrap;html=1;rounded=0;" vertex="1" parent="1">
          <mxGeometry x="140" y="270" width="120" height="60" as="geometry" />
        </mxCell>
        <mxCell id="N1SJ166QkLJ8DgW-zydG-143" value="uses" style="text;html=1;align=center;verticalAlign=middle;resizable=0;points=[];autosize=1;strokeColor=none;fillColor=none;rotation=-90;" vertex="1" parent="1">
          <mxGeometry x="195" y="380" width="40" height="20" as="geometry" />
        </mxCell>
        <mxCell id="N1SJ166QkLJ8DgW-zydG-145" value="Send" style="whiteSpace=wrap;html=1;rounded=0;" vertex="1" parent="1">
          <mxGeometry x="-172.5" y="920" width="124" height="60" as="geometry" />
        </mxCell>
        <mxCell id="N1SJ166QkLJ8DgW-zydG-146" value="" style="html=1;rounded=0;" vertex="1" parent="1">
          <mxGeometry x="-125.5" y="910" width="30" height="20" as="geometry" />
        </mxCell>
        <mxCell id="N1SJ166QkLJ8DgW-zydG-147" value="" style="endArrow=none;html=1;rounded=0;align=center;verticalAlign=top;endFill=0;labelBackgroundColor=none;endSize=2;strokeColor=default;curved=1;exitX=0.5;exitY=0;exitDx=0;exitDy=0;entryX=0.493;entryY=1.053;entryDx=0;entryDy=0;entryPerimeter=0;" edge="1" source="N1SJ166QkLJ8DgW-zydG-146" target="N1SJ166QkLJ8DgW-zydG-148" parent="1">
          <mxGeometry relative="1" as="geometry">
            <mxPoint x="-100" y="870" as="targetPoint" />
          </mxGeometry>
        </mxCell>
        <mxCell id="N1SJ166QkLJ8DgW-zydG-148" value="" style="ellipse;html=1;fontSize=11;align=center;fillColor=none;points=[];aspect=fixed;resizable=0;verticalAlign=bottom;labelPosition=center;verticalLabelPosition=top;flipH=1;" vertex="1" parent="1">
          <mxGeometry x="-117" y="872" width="8" height="8" as="geometry" />
        </mxCell>
        <mxCell id="N1SJ166QkLJ8DgW-zydG-151" value="" style="html=1;rounded=0;" vertex="1" parent="1">
          <mxGeometry x="-124.5" y="970" width="29" height="20" as="geometry" />
        </mxCell>
        <mxCell id="N1SJ166QkLJ8DgW-zydG-152" value="" style="endArrow=none;html=1;rounded=0;align=center;verticalAlign=top;endFill=0;labelBackgroundColor=none;endSize=2;strokeColor=default;curved=1;entryX=0.81;entryY=0.445;entryDx=0;entryDy=0;entryPerimeter=0;" edge="1" source="N1SJ166QkLJ8DgW-zydG-151" target="N1SJ166QkLJ8DgW-zydG-153" parent="1">
          <mxGeometry relative="1" as="geometry">
            <mxPoint x="-90" y="1020" as="targetPoint" />
          </mxGeometry>
        </mxCell>
        <mxCell id="N1SJ166QkLJ8DgW-zydG-153" value="" style="shape=requiredInterface;html=1;fontSize=11;align=center;fillColor=none;points=[];aspect=fixed;resizable=0;verticalAlign=bottom;labelPosition=center;verticalLabelPosition=top;flipH=1;rotation=90;" vertex="1" parent="1">
          <mxGeometry x="-114" y="1028" width="5" height="10" as="geometry" />
        </mxCell>
        <mxCell id="N1SJ166QkLJ8DgW-zydG-154" value="View" style="whiteSpace=wrap;html=1;rounded=0;" vertex="1" parent="1">
          <mxGeometry x="-562" y="502" width="120" height="60" as="geometry" />
        </mxCell>
        <mxCell id="N1SJ166QkLJ8DgW-zydG-157" value="" style="endArrow=none;html=1;rounded=0;strokeColor=default;entryX=0.987;entryY=0.484;entryDx=0;entryDy=0;entryPerimeter=0;exitX=0.5;exitY=0;exitDx=0;exitDy=0;" edge="1" parent="1" source="N1SJ166QkLJ8DgW-zydG-112" target="N1SJ166QkLJ8DgW-zydG-110">
          <mxGeometry width="50" height="50" relative="1" as="geometry">
            <mxPoint x="-460" y="690" as="sourcePoint" />
            <mxPoint x="-430" y="600" as="targetPoint" />
          </mxGeometry>
        </mxCell>
        <mxCell id="N1SJ166QkLJ8DgW-zydG-158" value="" style="endArrow=none;html=1;rounded=0;strokeColor=default;entryX=0.5;entryY=1;entryDx=0;entryDy=0;exitX=0.22;exitY=0.044;exitDx=0;exitDy=0;exitPerimeter=0;" edge="1" parent="1" source="N1SJ166QkLJ8DgW-zydG-109" target="N1SJ166QkLJ8DgW-zydG-71">
          <mxGeometry width="50" height="50" relative="1" as="geometry">
            <mxPoint x="-445" y="709.9999999999998" as="sourcePoint" />
            <mxPoint x="-279.85606406460556" y="518.0287718582152" as="targetPoint" />
          </mxGeometry>
        </mxCell>
        <mxCell id="N1SJ166QkLJ8DgW-zydG-159" value="" style="endArrow=none;html=1;rounded=0;strokeColor=default;entryX=0;entryY=1;entryDx=0;entryDy=0;" edge="1" parent="1" source="N1SJ166QkLJ8DgW-zydG-163" target="N1SJ166QkLJ8DgW-zydG-71">
          <mxGeometry width="50" height="50" relative="1" as="geometry">
            <mxPoint x="-350" y="430" as="sourcePoint" />
            <mxPoint x="-220" y="390" as="targetPoint" />
          </mxGeometry>
        </mxCell>
        <mxCell id="N1SJ166QkLJ8DgW-zydG-160" value="" style="html=1;rounded=0;" vertex="1" parent="1">
          <mxGeometry x="-500" y="491" width="30" height="19" as="geometry" />
        </mxCell>
        <mxCell id="N1SJ166QkLJ8DgW-zydG-161" value="" style="endArrow=none;html=1;rounded=0;align=center;verticalAlign=top;endFill=0;labelBackgroundColor=none;endSize=2;strokeColor=default;" edge="1" source="N1SJ166QkLJ8DgW-zydG-160" target="N1SJ166QkLJ8DgW-zydG-162" parent="1">
          <mxGeometry relative="1" as="geometry" />
        </mxCell>
        <mxCell id="N1SJ166QkLJ8DgW-zydG-162" value="" style="ellipse;html=1;fontSize=11;align=center;fillColor=none;points=[];aspect=fixed;resizable=0;verticalAlign=bottom;labelPosition=center;verticalLabelPosition=top;flipH=1;" vertex="1" parent="1">
          <mxGeometry x="-370" y="440" width="8" height="8" as="geometry" />
        </mxCell>
        <mxCell id="N1SJ166QkLJ8DgW-zydG-163" value="" style="shape=requiredInterface;html=1;fontSize=11;align=center;fillColor=none;points=[];aspect=fixed;resizable=0;verticalAlign=bottom;labelPosition=center;verticalLabelPosition=top;flipH=1;rotation=120;" vertex="1" parent="1">
          <mxGeometry x="-365" y="433" width="5" height="10" as="geometry" />
        </mxCell>
        <mxCell id="N1SJ166QkLJ8DgW-zydG-164" value="Book Analytics" style="whiteSpace=wrap;html=1;rounded=0;" vertex="1" parent="1">
          <mxGeometry x="-650" y="654" width="120" height="68" as="geometry" />
        </mxCell>
        <mxCell id="N1SJ166QkLJ8DgW-zydG-165" value="" style="html=1;rounded=0;" vertex="1" parent="1">
          <mxGeometry x="-605" y="648.5" width="30" height="13" as="geometry" />
        </mxCell>
        <mxCell id="N1SJ166QkLJ8DgW-zydG-166" value="" style="endArrow=none;html=1;rounded=0;align=center;verticalAlign=top;endFill=0;labelBackgroundColor=none;endSize=2;strokeColor=default;" edge="1" source="N1SJ166QkLJ8DgW-zydG-165" target="N1SJ166QkLJ8DgW-zydG-167" parent="1">
          <mxGeometry relative="1" as="geometry" />
        </mxCell>
        <mxCell id="N1SJ166QkLJ8DgW-zydG-167" value="" style="shape=requiredInterface;html=1;fontSize=11;align=center;fillColor=none;points=[];aspect=fixed;resizable=0;verticalAlign=bottom;labelPosition=center;verticalLabelPosition=top;flipH=1;rotation=-35;" vertex="1" parent="1">
          <mxGeometry x="-565" y="617" width="5" height="10" as="geometry" />
        </mxCell>
        <mxCell id="N1SJ166QkLJ8DgW-zydG-170" value="" style="html=1;rounded=0;" vertex="1" parent="1">
          <mxGeometry x="-520" y="550" width="30" height="16" as="geometry" />
        </mxCell>
        <mxCell id="N1SJ166QkLJ8DgW-zydG-171" value="" style="endArrow=none;html=1;rounded=0;align=center;verticalAlign=top;endFill=0;labelBackgroundColor=none;endSize=2;strokeColor=default;" edge="1" source="N1SJ166QkLJ8DgW-zydG-170" target="N1SJ166QkLJ8DgW-zydG-172" parent="1">
          <mxGeometry relative="1" as="geometry">
            <mxPoint x="-560" y="620" as="targetPoint" />
          </mxGeometry>
        </mxCell>
        <mxCell id="N1SJ166QkLJ8DgW-zydG-172" value="" style="ellipse;html=1;fontSize=11;align=center;fillColor=none;points=[];aspect=fixed;resizable=0;verticalAlign=bottom;labelPosition=center;verticalLabelPosition=top;flipH=1;" vertex="1" parent="1">
          <mxGeometry x="-562" y="615" width="8" height="8" as="geometry" />
        </mxCell>
        <mxCell id="N1SJ166QkLJ8DgW-zydG-173" value="" style="endArrow=none;html=1;rounded=0;align=center;verticalAlign=top;endFill=0;labelBackgroundColor=none;endSize=2;strokeColor=default;exitX=0.5;exitY=1;exitDx=0;exitDy=0;entryX=0.659;entryY=-0.036;entryDx=0;entryDy=0;entryPerimeter=0;" edge="1" parent="1" target="N1SJ166QkLJ8DgW-zydG-174" source="N1SJ166QkLJ8DgW-zydG-170">
          <mxGeometry relative="1" as="geometry">
            <mxPoint x="-501.95052283224504" y="576" as="sourcePoint" />
            <mxPoint x="-440" y="610" as="targetPoint" />
          </mxGeometry>
        </mxCell>
        <mxCell id="N1SJ166QkLJ8DgW-zydG-174" value="" style="ellipse;html=1;fontSize=11;align=center;fillColor=none;points=[];aspect=fixed;resizable=0;verticalAlign=bottom;labelPosition=center;verticalLabelPosition=top;flipH=1;" vertex="1" parent="1">
          <mxGeometry x="-478" y="612" width="8" height="8" as="geometry" />
        </mxCell>
        <mxCell id="N1SJ166QkLJ8DgW-zydG-176" value="" style="endArrow=none;html=1;rounded=0;strokeColor=default;entryX=0;entryY=0.25;entryDx=0;entryDy=0;exitX=1.093;exitY=0.33;exitDx=0;exitDy=0;exitPerimeter=0;" edge="1" parent="1" source="N1SJ166QkLJ8DgW-zydG-106" target="N1SJ166QkLJ8DgW-zydG-104">
          <mxGeometry width="50" height="50" relative="1" as="geometry">
            <mxPoint x="-340" y="990" as="sourcePoint" />
            <mxPoint x="-290" y="940" as="targetPoint" />
          </mxGeometry>
        </mxCell>
        <mxCell id="N1SJ166QkLJ8DgW-zydG-177" value="" style="endArrow=none;html=1;rounded=0;strokeColor=default;entryX=1;entryY=1;entryDx=0;entryDy=0;exitX=0.751;exitY=0.024;exitDx=0;exitDy=0;exitPerimeter=0;" edge="1" parent="1" source="N1SJ166QkLJ8DgW-zydG-103" target="N1SJ166QkLJ8DgW-zydG-112">
          <mxGeometry width="50" height="50" relative="1" as="geometry">
            <mxPoint x="-360" y="910" as="sourcePoint" />
            <mxPoint x="-310" y="860" as="targetPoint" />
          </mxGeometry>
        </mxCell>
        <mxCell id="N1SJ166QkLJ8DgW-zydG-178" value="feed back" style="whiteSpace=wrap;html=1;rounded=0;" vertex="1" parent="1">
          <mxGeometry x="-510" y="650" width="120" height="78" as="geometry" />
        </mxCell>
        <mxCell id="N1SJ166QkLJ8DgW-zydG-179" value="" style="html=1;rounded=0;" vertex="1" parent="1">
          <mxGeometry x="-465" y="643" width="30" height="20" as="geometry" />
        </mxCell>
        <mxCell id="N1SJ166QkLJ8DgW-zydG-180" value="" style="endArrow=none;html=1;rounded=0;align=center;verticalAlign=top;endFill=0;labelBackgroundColor=none;endSize=2;strokeColor=default;" edge="1" source="N1SJ166QkLJ8DgW-zydG-179" target="N1SJ166QkLJ8DgW-zydG-181" parent="1">
          <mxGeometry relative="1" as="geometry" />
        </mxCell>
        <mxCell id="N1SJ166QkLJ8DgW-zydG-181" value="" style="shape=requiredInterface;html=1;fontSize=11;align=center;fillColor=none;points=[];aspect=fixed;resizable=0;verticalAlign=bottom;labelPosition=center;verticalLabelPosition=top;flipH=1;rotation=-90;" vertex="1" parent="1">
          <mxGeometry x="-476" y="616" width="5" height="10" as="geometry" />
        </mxCell>
        <mxCell id="N1SJ166QkLJ8DgW-zydG-182" value="" style="ellipse;html=1;fontSize=11;align=center;fillColor=none;points=[];aspect=fixed;resizable=0;verticalAlign=bottom;labelPosition=center;verticalLabelPosition=top;flipH=1;" vertex="1" parent="1">
          <mxGeometry x="-277" y="696" width="8" height="8" as="geometry" />
        </mxCell>
        <mxCell id="N1SJ166QkLJ8DgW-zydG-184" value="" style="endArrow=none;html=1;rounded=0;align=center;verticalAlign=top;endFill=0;labelBackgroundColor=none;endSize=2;strokeColor=default;exitX=0;exitY=0.5;exitDx=0;exitDy=0;" edge="1" parent="1" source="N1SJ166QkLJ8DgW-zydG-190" target="N1SJ166QkLJ8DgW-zydG-185">
          <mxGeometry relative="1" as="geometry">
            <mxPoint x="-355" y="820.0353982300884" as="sourcePoint" />
          </mxGeometry>
        </mxCell>
        <mxCell id="N1SJ166QkLJ8DgW-zydG-185" value="" style="shape=requiredInterface;html=1;fontSize=11;align=center;fillColor=none;points=[];aspect=fixed;resizable=0;verticalAlign=bottom;labelPosition=center;verticalLabelPosition=top;flipH=1;rotation=-180;" vertex="1" parent="1">
          <mxGeometry x="-269" y="695" width="5" height="10" as="geometry" />
        </mxCell>
        <mxCell id="N1SJ166QkLJ8DgW-zydG-186" value="" style="endArrow=none;html=1;rounded=0;align=center;verticalAlign=top;endFill=0;labelBackgroundColor=none;endSize=2;strokeColor=default;exitX=1;exitY=0.5;exitDx=0;exitDy=0;entryX=1.073;entryY=0.401;entryDx=0;entryDy=0;entryPerimeter=0;" edge="1" parent="1" source="N1SJ166QkLJ8DgW-zydG-187" target="N1SJ166QkLJ8DgW-zydG-182">
          <mxGeometry relative="1" as="geometry">
            <mxPoint x="-420" y="760" as="sourcePoint" />
            <mxPoint x="-280" y="700" as="targetPoint" />
          </mxGeometry>
        </mxCell>
        <mxCell id="N1SJ166QkLJ8DgW-zydG-187" value="" style="html=1;rounded=0;" vertex="1" parent="1">
          <mxGeometry x="-403" y="690" width="30" height="20" as="geometry" />
        </mxCell>
        <mxCell id="N1SJ166QkLJ8DgW-zydG-189" value="Give" style="whiteSpace=wrap;html=1;rounded=0;" vertex="1" parent="1">
          <mxGeometry x="24" y="640" width="120" height="72" as="geometry" />
        </mxCell>
        <mxCell id="N1SJ166QkLJ8DgW-zydG-190" value="" style="html=1;rounded=0;" vertex="1" parent="1">
          <mxGeometry x="7.5" y="672" width="30" height="20" as="geometry" />
        </mxCell>
        <mxCell id="N1SJ166QkLJ8DgW-zydG-191" value="" style="endArrow=none;html=1;rounded=0;align=center;verticalAlign=top;endFill=0;labelBackgroundColor=none;endSize=2;curved=1;exitX=0;exitY=0.75;exitDx=0;exitDy=0;entryX=0.06;entryY=0.204;entryDx=0;entryDy=0;entryPerimeter=0;" edge="1" parent="1" source="N1SJ166QkLJ8DgW-zydG-25" target="N1SJ166QkLJ8DgW-zydG-192">
          <mxGeometry relative="1" as="geometry">
            <mxPoint x="410.00000000000045" y="545" as="sourcePoint" />
            <mxPoint x="188" y="650" as="targetPoint" />
          </mxGeometry>
        </mxCell>
        <mxCell id="N1SJ166QkLJ8DgW-zydG-192" value="" style="ellipse;html=1;fontSize=11;align=center;fillColor=none;points=[];aspect=fixed;resizable=0;verticalAlign=bottom;labelPosition=center;verticalLabelPosition=top;flipH=1;" vertex="1" parent="1">
          <mxGeometry x="212" y="635" width="8" height="8" as="geometry" />
        </mxCell>
        <mxCell id="N1SJ166QkLJ8DgW-zydG-194" value="" style="html=1;rounded=0;" vertex="1" parent="1">
          <mxGeometry x="125" y="668" width="40" height="30" as="geometry" />
        </mxCell>
        <mxCell id="N1SJ166QkLJ8DgW-zydG-195" value="" style="endArrow=none;html=1;rounded=0;align=center;verticalAlign=top;endFill=0;labelBackgroundColor=none;endSize=2;strokeColor=default;" edge="1" source="N1SJ166QkLJ8DgW-zydG-194" target="N1SJ166QkLJ8DgW-zydG-196" parent="1">
          <mxGeometry relative="1" as="geometry" />
        </mxCell>
        <mxCell id="N1SJ166QkLJ8DgW-zydG-196" value="" style="shape=requiredInterface;html=1;fontSize=11;align=center;fillColor=none;points=[];aspect=fixed;resizable=0;verticalAlign=bottom;labelPosition=center;verticalLabelPosition=top;flipH=1;rotation=-10;" vertex="1" parent="1">
          <mxGeometry x="207" y="636" width="5" height="10" as="geometry" />
        </mxCell>
        <mxCell id="N1SJ166QkLJ8DgW-zydG-197" value="Register" style="whiteSpace=wrap;html=1;rounded=0;" vertex="1" parent="1">
          <mxGeometry x="100" y="841" width="120" height="60" as="geometry" />
        </mxCell>
        <mxCell id="N1SJ166QkLJ8DgW-zydG-199" value="" style="endArrow=none;html=1;rounded=0;align=center;verticalAlign=top;endFill=0;labelBackgroundColor=none;endSize=2;curved=1;exitX=0;exitY=1;exitDx=0;exitDy=0;entryX=-0.008;entryY=0.241;entryDx=0;entryDy=0;entryPerimeter=0;" edge="1" parent="1" source="N1SJ166QkLJ8DgW-zydG-25" target="N1SJ166QkLJ8DgW-zydG-200">
          <mxGeometry relative="1" as="geometry">
            <mxPoint x="410" y="552.5" as="sourcePoint" />
            <mxPoint x="195.51999999999953" y="665.632" as="targetPoint" />
          </mxGeometry>
        </mxCell>
        <mxCell id="N1SJ166QkLJ8DgW-zydG-200" value="" style="ellipse;html=1;fontSize=11;align=center;fillColor=none;points=[];aspect=fixed;resizable=0;verticalAlign=bottom;labelPosition=center;verticalLabelPosition=top;flipH=1;" vertex="1" parent="1">
          <mxGeometry x="252" y="646" width="8" height="8" as="geometry" />
        </mxCell>
        <mxCell id="N1SJ166QkLJ8DgW-zydG-201" value="" style="html=1;rounded=0;" vertex="1" parent="1">
          <mxGeometry x="148" y="835" width="30" height="15" as="geometry" />
        </mxCell>
        <mxCell id="N1SJ166QkLJ8DgW-zydG-202" value="" style="endArrow=none;html=1;rounded=0;align=center;verticalAlign=top;endFill=0;labelBackgroundColor=none;endSize=2;strokeColor=default;" edge="1" source="N1SJ166QkLJ8DgW-zydG-201" target="N1SJ166QkLJ8DgW-zydG-203" parent="1">
          <mxGeometry relative="1" as="geometry" />
        </mxCell>
        <mxCell id="N1SJ166QkLJ8DgW-zydG-203" value="" style="shape=requiredInterface;html=1;fontSize=11;align=center;fillColor=none;points=[];aspect=fixed;resizable=0;verticalAlign=bottom;labelPosition=center;verticalLabelPosition=top;flipH=1;rotation=-45;" vertex="1" parent="1">
          <mxGeometry x="247" y="652" width="5" height="10" as="geometry" />
        </mxCell>
        <mxCell id="N1SJ166QkLJ8DgW-zydG-209" value="" style="html=1;rounded=0;" vertex="1" parent="1">
          <mxGeometry x="-30" y="772" width="30" height="22.5" as="geometry" />
        </mxCell>
        <mxCell id="N1SJ166QkLJ8DgW-zydG-210" value="" style="endArrow=none;html=1;rounded=0;align=center;verticalAlign=top;endFill=0;labelBackgroundColor=none;endSize=2;strokeColor=default;" edge="1" source="N1SJ166QkLJ8DgW-zydG-209" target="N1SJ166QkLJ8DgW-zydG-211" parent="1">
          <mxGeometry relative="1" as="geometry" />
        </mxCell>
        <mxCell id="N1SJ166QkLJ8DgW-zydG-211" value="" style="ellipse;html=1;fontSize=11;align=center;fillColor=none;points=[];aspect=fixed;resizable=0;verticalAlign=bottom;labelPosition=center;verticalLabelPosition=top;flipH=1;" vertex="1" parent="1">
          <mxGeometry x="82" y="794.5" width="8" height="8" as="geometry" />
        </mxCell>
        <mxCell id="N1SJ166QkLJ8DgW-zydG-214" value="" style="endArrow=none;html=1;rounded=0;align=center;verticalAlign=top;endFill=0;labelBackgroundColor=none;endSize=2;strokeColor=default;exitX=0.25;exitY=0;exitDx=0;exitDy=0;entryX=1.144;entryY=0.544;entryDx=0;entryDy=0;entryPerimeter=0;" edge="1" source="N1SJ166QkLJ8DgW-zydG-201" target="N1SJ166QkLJ8DgW-zydG-215" parent="1">
          <mxGeometry relative="1" as="geometry">
            <mxPoint x="20" y="845" as="sourcePoint" />
            <mxPoint x="100" y="810" as="targetPoint" />
          </mxGeometry>
        </mxCell>
        <mxCell id="N1SJ166QkLJ8DgW-zydG-215" value="" style="shape=requiredInterface;html=1;fontSize=11;align=center;fillColor=none;points=[];aspect=fixed;resizable=0;verticalAlign=bottom;labelPosition=center;verticalLabelPosition=top;flipH=1;rotation=-135;" vertex="1" parent="1">
          <mxGeometry x="87" y="797" width="5" height="10" as="geometry" />
        </mxCell>
        <mxCell id="N1SJ166QkLJ8DgW-zydG-216" value="" style="endArrow=none;html=1;rounded=0;align=center;verticalAlign=top;endFill=0;labelBackgroundColor=none;endSize=2;curved=1;exitX=0.011;exitY=0.626;exitDx=0;exitDy=0;exitPerimeter=0;entryX=0.27;entryY=-0.079;entryDx=0;entryDy=0;entryPerimeter=0;" edge="1" parent="1" source="N1SJ166QkLJ8DgW-zydG-53" target="N1SJ166QkLJ8DgW-zydG-217">
          <mxGeometry relative="1" as="geometry">
            <mxPoint x="80" y="480" as="sourcePoint" />
            <mxPoint x="-20" y="630" as="targetPoint" />
          </mxGeometry>
        </mxCell>
        <mxCell id="N1SJ166QkLJ8DgW-zydG-217" value="" style="ellipse;html=1;fontSize=11;align=center;fillColor=none;points=[];aspect=fixed;resizable=0;verticalAlign=bottom;labelPosition=center;verticalLabelPosition=top;flipH=1;" vertex="1" parent="1">
          <mxGeometry x="-28" y="635" width="8" height="8" as="geometry" />
        </mxCell>
        <mxCell id="N1SJ166QkLJ8DgW-zydG-218" value="" style="endArrow=none;html=1;rounded=0;align=center;verticalAlign=top;endFill=0;labelBackgroundColor=none;endSize=2;exitX=0.5;exitY=0;exitDx=0;exitDy=0;entryX=1.365;entryY=0.532;entryDx=0;entryDy=0;entryPerimeter=0;" edge="1" parent="1" source="N1SJ166QkLJ8DgW-zydG-84" target="N1SJ166QkLJ8DgW-zydG-219">
          <mxGeometry relative="1" as="geometry">
            <mxPoint x="-103.40586392900627" y="730" as="sourcePoint" />
            <mxPoint x="-40" y="660" as="targetPoint" />
          </mxGeometry>
        </mxCell>
        <mxCell id="N1SJ166QkLJ8DgW-zydG-219" value="" style="shape=requiredInterface;html=1;fontSize=11;align=center;fillColor=none;points=[];aspect=fixed;resizable=0;verticalAlign=bottom;labelPosition=center;verticalLabelPosition=top;flipH=1;rotation=-45;" vertex="1" parent="1">
          <mxGeometry x="-30" y="638" width="5" height="10" as="geometry" />
        </mxCell>
        <mxCell id="N1SJ166QkLJ8DgW-zydG-220" value="" style="shape=module;jettyWidth=8;jettyHeight=4;" vertex="1" parent="1">
          <mxGeometry x="120" y="645" width="20" height="20" as="geometry" />
        </mxCell>
        <mxCell id="N1SJ166QkLJ8DgW-zydG-221" value="" style="shape=module;jettyWidth=8;jettyHeight=4;" vertex="1" parent="1">
          <mxGeometry x="365" y="695" width="20" height="19" as="geometry" />
        </mxCell>
        <mxCell id="N1SJ166QkLJ8DgW-zydG-222" value="" style="shape=module;jettyWidth=8;jettyHeight=4;" vertex="1" parent="1">
          <mxGeometry x="516" y="689" width="20" height="20" as="geometry" />
        </mxCell>
        <mxCell id="N1SJ166QkLJ8DgW-zydG-223" value="" style="shape=module;jettyWidth=8;jettyHeight=4;" vertex="1" parent="1">
          <mxGeometry x="686" y="683" width="20" height="20" as="geometry" />
        </mxCell>
        <mxCell id="N1SJ166QkLJ8DgW-zydG-224" value="" style="shape=module;jettyWidth=8;jettyHeight=4;" vertex="1" parent="1">
          <mxGeometry x="515" y="275" width="20" height="20" as="geometry" />
        </mxCell>
        <mxCell id="N1SJ166QkLJ8DgW-zydG-225" value="" style="shape=module;jettyWidth=8;jettyHeight=4;" vertex="1" parent="1">
          <mxGeometry x="236.5" y="274" width="20" height="20" as="geometry" />
        </mxCell>
        <mxCell id="N1SJ166QkLJ8DgW-zydG-226" value="" style="shape=module;jettyWidth=8;jettyHeight=4;" vertex="1" parent="1">
          <mxGeometry x="-95.5" y="534" width="20" height="20" as="geometry" />
        </mxCell>
        <mxCell id="N1SJ166QkLJ8DgW-zydG-227" value="" style="shape=module;jettyWidth=8;jettyHeight=4;" vertex="1" parent="1">
          <mxGeometry x="-415" y="654" width="20" height="20" as="geometry" />
        </mxCell>
        <mxCell id="N1SJ166QkLJ8DgW-zydG-228" value="" style="shape=module;jettyWidth=8;jettyHeight=4;" vertex="1" parent="1">
          <mxGeometry x="-555" y="659" width="20" height="20" as="geometry" />
        </mxCell>
        <mxCell id="N1SJ166QkLJ8DgW-zydG-229" value="" style="shape=module;jettyWidth=8;jettyHeight=4;" vertex="1" parent="1">
          <mxGeometry x="-466" y="506" width="20" height="20" as="geometry" />
        </mxCell>
        <mxCell id="N1SJ166QkLJ8DgW-zydG-230" value="" style="shape=module;jettyWidth=8;jettyHeight=4;" vertex="1" parent="1">
          <mxGeometry x="-73.5" y="925" width="20" height="20" as="geometry" />
        </mxCell>
        <mxCell id="N1SJ166QkLJ8DgW-zydG-231" value="" style="shape=module;jettyWidth=8;jettyHeight=4;" vertex="1" parent="1">
          <mxGeometry x="195" y="845" width="20" height="20" as="geometry" />
        </mxCell>
        <mxCell id="N1SJ166QkLJ8DgW-zydG-232" value="" style="shape=module;jettyWidth=8;jettyHeight=4;" vertex="1" parent="1">
          <mxGeometry x="515" y="905" width="20" height="20" as="geometry" />
        </mxCell>
        <mxCell id="N1SJ166QkLJ8DgW-zydG-233" value="" style="shape=module;jettyWidth=8;jettyHeight=4;" vertex="1" parent="1">
          <mxGeometry x="-74.5" y="1084" width="20" height="20" as="geometry" />
        </mxCell>
        <mxCell id="N1SJ166QkLJ8DgW-zydG-236" value="" style="shape=module;jettyWidth=8;jettyHeight=4;" vertex="1" parent="1">
          <mxGeometry x="-450" y="794.5" width="20" height="20" as="geometry" />
        </mxCell>
      </root>
    </mxGraphModel>
  </diagram>
</mxfile>
